# xmcd CD database file
#
# Track frame offsets:
#	150
#	27315
#	51594
#	73671
#	88101
#	107913
#	130958
#	145963
#	164414
#	180254
#	191176
#	209518
#	236914
#	270839
#	315094
#
# Disc length: 4364 seconds
#
# Revision: 4
# Processed by: cddbd v1.5.2PL0 Copyright (c) Steve Scherf et al.
# Submitted via: CDex 1.70beta2
#
DISCID=dd110a0f
DTITLE=Axel Zwingenberger - Vom Zauber der Züge [CD 1)
DYEAR=2000
DGENRE=Boogie Woogie
TTITLE0=Thundertrain
TTITLE1=Railway Nocturne
TTITLE2=Steel Dragon
TTITLE3=The Fives
TTITLE4=Dream Train
TTITLE5=Santa Fé Blues
TTITLE6=44 Blues
TTITLE7=Cow Cow Blues
TTITLE8=Ooeeh Train
TTITLE9=Low Down Dog
TTITLE10=Chicago Flyer
TTITLE11=Honky Tonk Train Blues
TTITLE12=Big Black 310
TTITLE13=Running Late
TTITLE14=How Long Blues
EXTD=Boogie Woogie und die Eisenbahn YEAR: 2000
EXTT0=
EXTT1=
EXTT2=
EXTT3=
EXTT4=
EXTT5=
EXTT6=
EXTT7=
EXTT8=
EXTT9=
EXTT10=
EXTT11=
EXTT12=
EXTT13=
EXTT14=
PLAYORDER=
